<svg width="32" height="32" viewBox="0 0 32 32" fill="none" xmlns="http://www.w3.org/2000/svg">
  <rect width="32" height="32" rx="6" fill="#0EA5E9"/>
  <path d="M8 20C8 20 10 16 12 16C14 16 16 20 16 20C16 20 18 16 20 16C22 16 24 20 24 20" stroke="white" stroke-width="2" stroke-linecap="round" stroke-linejoin="round"/>
  <path d="M6 24C6 24 8 20 10 20C12 20 14 24 14 24C14 24 16 20 18 20C20 20 22 24 22 24C22 24 24 20 26 20" stroke="white" stroke-width="2" stroke-linecap="round" stroke-linejoin="round"/>
  <circle cx="16" cy="10" r="2" fill="white"/>
  <path d="M14 12L18 12" stroke="white" stroke-width="2" stroke-linecap="round"/>
</svg>